<?xml version="1.0" encoding="utf-8"?>
<!-- Generator: Adobe Illustrator 24.1.0, SVG Export Plug-In . SVG Version: 6.00 Build 0)  -->
<svg version="1.1" id="a48982f8-6f90-42ca-afb3-d8e4a7a73152"
	 xmlns="http://www.w3.org/2000/svg" xmlns:xlink="http://www.w3.org/1999/xlink" x="0px" y="0px" viewBox="0 0 740.8 608.5"
	 style="enable-background:new 0 0 740.8 608.5;" xml:space="preserve">
<style type="text/css">
	.st0{fill:#D0CDE1;}
	.st1{fill:#FF4700;}
	.st2{fill:#FFFFFF;}
</style>
<g>
	<path class="st0" d="M371.2,590.4c-2.8,0-5.6,0-8.4-0.1l0.1-2.8c2.7,0.1,5.5,0.1,8.3,0.1c2.8,0,5.6,0,8.4-0.1l0.1,2.8
		C376.9,590.3,374,590.4,371.2,590.4z M346.1,589.2c-5.6-0.5-11.2-1.2-16.7-2.1l0.4-2.8c5.5,0.9,11,1.6,16.5,2.1L346.1,589.2z
		 M396.5,589.2l-0.3-2.8c5.5-0.5,11-1.2,16.5-2.1l0.4,2.8C407.6,587.9,402,588.6,396.5,589.2L396.5,589.2z M312.9,583.9
		c-5.4-1.2-10.9-2.7-16.3-4.2l0.8-2.7c5.3,1.6,10.7,3,16.1,4.2L312.9,583.9z M429.7,583.8l-0.6-2.7c5.4-1.2,10.8-2.6,16.1-4.2
		l0.8,2.7C440.6,581.2,435.1,582.6,429.7,583.8L429.7,583.8z M280.6,574.4c-5.3-1.9-10.5-4.1-15.6-6.3l1.1-2.6
		c5.1,2.2,10.3,4.3,15.4,6.2L280.6,574.4z M461.9,574.3l-1-2.6c5.2-1.9,10.3-4,15.4-6.2l1.1,2.6
		C472.3,570.2,467.1,572.3,461.9,574.3z M249.9,560.8c-4.9-2.6-9.9-5.4-14.7-8.3l1.4-2.4c4.7,2.9,9.6,5.6,14.5,8.2L249.9,560.8z
		 M492.6,560.7l-1.3-2.5c4.9-2.6,9.7-5.3,14.5-8.2l1.5,2.4C502.4,555.3,497.5,558.1,492.6,560.7z M221.1,543.3
		c-4.6-3.2-9.1-6.6-13.5-10.1l1.7-2.2c4.3,3.4,8.8,6.8,13.3,10L221.1,543.3z M521.3,543.2l-1.6-2.3c4.5-3.2,9-6.5,13.3-10l1.7,2.2
		C530.4,536.6,525.9,540,521.3,543.2z M194.8,522.3c-4.1-3.8-8.2-7.7-12.1-11.7l2-1.9c3.8,4,7.9,7.9,12,11.6L194.8,522.3z
		 M547.5,522.2l-1.9-2.1c4.1-3.7,8.1-7.6,12-11.6l2,1.9C555.7,514.5,551.7,518.5,547.5,522.2z M171.4,498.2
		c-3.6-4.2-7.2-8.7-10.5-13.1l2.2-1.7c3.3,4.4,6.8,8.8,10.4,13L171.4,498.2z M570.9,498.1l-2.1-1.8c3.6-4.2,7.1-8.6,10.4-13l2.2,1.7
		C578.1,489.4,574.6,493.8,570.9,498.1L570.9,498.1z M151.3,471.3c-3.1-4.7-6-9.5-8.7-14.4l2.4-1.4c2.7,4.8,5.6,9.6,8.6,14.2
		L151.3,471.3z M591.1,471.1l-2.3-1.5c3-4.6,5.9-9.4,8.6-14.2l2.4,1.4C597.1,461.6,594.1,466.5,591.1,471.1L591.1,471.1z
		 M134.7,442.1c-2.4-5-4.7-10.2-6.8-15.3l2.6-1c2.1,5.1,4.3,10.2,6.7,15.2L134.7,442.1z M607.6,441.8l-2.5-1.2
		c2.4-5,4.7-10.1,6.8-15.2l2.6,1C612.3,431.6,610,436.8,607.6,441.8z M122.1,410.9c-1.8-5.3-3.4-10.7-4.8-16.1l2.7-0.7
		c1.4,5.3,3,10.7,4.7,15.9L122.1,410.9z M620.3,410.6l-2.6-0.9c1.7-5.2,3.3-10.6,4.7-16l2.7,0.7C623.6,399.9,622,405.3,620.3,410.6z
		 M113.5,378.4c-1.1-5.5-2-11.1-2.7-16.6l2.8-0.4c0.7,5.5,1.6,11,2.7,16.4L113.5,378.4z M628.8,378.1l-2.7-0.5
		c1-5.4,1.9-10.9,2.6-16.4l2.8,0.4C630.7,367.1,629.8,372.6,628.8,378.1L628.8,378.1z M109.2,345.1c-0.4-5.6-0.5-11.2-0.5-16.8
		l2.8,0c0,5.5,0.2,11.1,0.5,16.6L109.2,345.1z M633,344.8l-2.8-0.2c0.3-5.5,0.5-11.1,0.5-16.6l0-0.6h2.8l0,0.6
		C633.5,333.6,633.4,339.2,633,344.8L633,344.8z M112,311.6l-2.8-0.2c0.3-5.6,0.9-11.2,1.6-16.7l2.8,0.3
		C112.9,300.5,112.3,306.1,112,311.6z M630.2,310.7c-0.4-5.5-0.9-11.1-1.6-16.6l2.8-0.4c0.7,5.5,1.3,11.2,1.6,16.7L630.2,310.7z
		 M116.2,278.6l-2.7-0.5c1.1-5.5,2.3-11,3.7-16.4l2.7,0.7C118.4,267.8,117.2,273.2,116.2,278.6z M625.9,277.7
		c-1.1-5.4-2.3-10.9-3.7-16.2l2.7-0.7c1.4,5.4,2.7,10.9,3.8,16.4L625.9,277.7z M124.5,246.5l-2.7-0.9c1.8-5.3,3.7-10.6,5.8-15.8
		l2.6,1C128.2,235.9,126.3,241.2,124.5,246.5z M617.4,245.6c-1.8-5.2-3.7-10.5-5.8-15.6l2.6-1.1c2.1,5.2,4.1,10.5,5.8,15.8
		L617.4,245.6z M137,215.6l-2.5-1.2c2.4-5,5-10.1,7.8-14.9l2.4,1.4C142,205.6,139.4,210.6,137,215.6z M604.9,214.8
		c-2.4-5-5-9.9-7.7-14.7l2.4-1.4c2.8,4.9,5.4,9.9,7.8,14.9L604.9,214.8z M153.3,186.6L151,185c3-4.7,6.3-9.3,9.6-13.8l2.2,1.7
		C159.6,177.3,156.3,181.9,153.3,186.6z M588.5,185.9c-3-4.6-6.2-9.2-9.6-13.6l2.2-1.7c3.4,4.5,6.6,9.1,9.7,13.8L588.5,185.9z
		 M173.2,159.9l-2.1-1.8c3.6-4.3,7.4-8.4,11.3-12.5l2,1.9C180.6,151.5,176.8,155.7,173.2,159.9z M568.5,159.3
		c-3.6-4.2-7.4-8.3-11.2-12.3l2-1.9c3.9,4,7.7,8.2,11.3,12.4L568.5,159.3z M196.3,136l-1.9-2.1c4.1-3.8,8.4-7.4,12.8-10.9l1.7,2.2
		C204.7,128.6,200.4,132.2,196.3,136z M545.3,135.5c-4.1-3.7-8.4-7.3-12.7-10.8l1.7-2.2c4.4,3.5,8.7,7.1,12.8,10.9L545.3,135.5z
		 M222.3,115.2l-1.6-2.3c4.6-3.2,9.3-6.3,14.1-9.2l1.5,2.4C231.5,109,226.8,112,222.3,115.2z M519.3,114.7c-4.5-3.2-9.2-6.2-14-9.1
		l1.4-2.4c4.8,2.9,9.5,6,14.1,9.2L519.3,114.7z M250.7,97.9l-1.3-2.5c4.9-2.6,10-5.1,15.1-7.3l1.1,2.6
		C260.6,92.9,255.6,95.3,250.7,97.9z M490.8,97.5c-4.9-2.6-10-5-15-7.2l1.1-2.6c5.1,2.3,10.2,4.7,15.2,7.3L490.8,97.5z M281,84.4
		l-1-2.6c5.2-1.9,10.6-3.7,16-5.3l0.8,2.7C291.5,80.7,286.2,82.5,281,84.4z M460.3,84.1c-5.2-1.9-10.5-3.7-15.8-5.2l0.8-2.7
		c5.4,1.6,10.7,3.3,16,5.3L460.3,84.1z M312.9,74.9l-0.6-2.7c5.4-1.2,11-2.3,16.5-3.2l0.4,2.8C323.8,72.6,318.3,73.7,312.9,74.9z
		 M428.4,74.7c-5.4-1.2-10.9-2.3-16.3-3.1l0.4-2.8c5.5,0.9,11.1,1.9,16.5,3.2L428.4,74.7z M345.7,69.6l-0.3-2.8
		c5.5-0.5,11.2-0.9,16.8-1.1l0.1,2.8C356.8,68.7,351.2,69,345.7,69.6L345.7,69.6z M395.6,69.5c-5.5-0.5-11.1-0.9-16.6-1l0.1-2.8
		c5.6,0.2,11.2,0.5,16.8,1L395.6,69.5z"/>
	<circle class="st1" cx="361.3" cy="72.5" r="65.6"/>
	<circle class="st1" cx="615.4" cy="251.2" r="65.6"/>
	<circle class="st1" cx="535.8" cy="524.8" r="65.6"/>
	<circle class="st1" cx="220.4" cy="535.9" r="65.6"/>
	<circle class="st1" cx="125.4" cy="251.2" r="65.6"/>
	<path class="st2" d="M389.5,67.3h-22.9c-4.3,0-7.8-3.5-7.8-7.8V36.6c0-0.4-0.3-0.7-0.7-0.7l0,0h-15c-5.8,0-10.5,4.7-10.5,10.5v52.3
		c0,5.8,4.7,10.5,10.5,10.5l0,0h36.6c5.8,0,10.5-4.7,10.5-10.5c0,0,0,0,0,0V67.9C390.1,67.6,389.8,67.3,389.5,67.3L389.5,67.3z
		 M374.4,93.4h-26.2c-1.4,0-2.6-1.2-2.6-2.6c0-1.4,1.2-2.6,2.6-2.6h26.2c1.4,0,2.6,1.2,2.6,2.6C377,92.3,375.9,93.4,374.4,93.4z
		 M374.4,80.4h-26.2c-1.4,0-2.6-1.2-2.6-2.6c0-1.4,1.2-2.6,2.6-2.6h26.2c1.4,0,2.6,1.2,2.6,2.6C377,79.2,375.9,80.4,374.4,80.4z"/>
	<path class="st2" d="M388,61.5L364.5,38c-0.1-0.1-0.3-0.1-0.5,0c-0.1,0.1-0.1,0.1-0.1,0.2v21.2c0,1.4,1.2,2.6,2.6,2.6h21.2
		c0.2,0,0.3-0.1,0.3-0.3C388.1,61.6,388.1,61.6,388,61.5L388,61.5z"/>
	<path class="st2" d="M545.3,511.9c-1.9,0-3.5,1.6-3.5,3.5c0,1.9,1.6,3.5,3.5,3.5c1.9,0,3.5-1.6,3.5-3.5c0-0.9-0.4-1.8-1-2.5
		C547.1,512.2,546.2,511.9,545.3,511.9z"/>
	<path class="st2" d="M564.7,498L564.7,498c-0.2-1-1-1.8-2-2c-3.9-0.9-10,0.1-16.8,2.8c-6.5,2.5-12.5,6.3-17.5,11.1
		c-1.4,1.4-2.7,2.8-3.8,4.4c-2.6-0.2-5.2,0.2-7.6,1.2c-7.5,3.3-9.7,11.8-10.2,15.3c-0.3,1.8,0.9,3.5,2.7,3.7c0.3,0,0.6,0.1,0.9,0h0
		l8.4-0.9c0,0.1,0,0.2,0,0.3c0.1,1,0.6,2,1.3,2.7l4.1,4.1c0.7,0.7,1.7,1.2,2.7,1.3l0.3,0l-0.9,8.4v0c-0.2,1.8,1.1,3.4,2.9,3.6l0,0
		c0.1,0,0.2,0,0.3,0c0.2,0,0.4,0,0.5,0c3.5-0.6,12-2.7,15.3-10.2c1-2.4,1.4-5,1.2-7.6c1.6-1.2,3-2.5,4.4-3.8
		c4.8-5,8.6-10.9,11.1-17.4C564.6,508.1,565.6,502,564.7,498z M550.7,520.7c-3,3-7.8,3-10.8,0c-3-3-3-7.8,0-10.8c3-3,7.8-3,10.8,0
		l0,0l0,0C553.7,512.9,553.8,517.7,550.7,520.7L550.7,520.7L550.7,520.7z"/>
	<path class="st2" d="M523.6,541.8c-0.5-0.1-1,0.1-1.4,0.3c-0.8,0.6-1.7,1.1-2.5,1.7c-0.9,0.6-2.1,0.3-2.7-0.6c-0.4-0.6-0.4-1.4,0-2
		l1.6-2.7c0.6-1,0.4-2.2-0.5-2.9c-0.4-0.3-0.9-0.4-1.4-0.3c-1.8,0.2-3.4,1-4.6,2.3c-0.5,0.5-1.9,1.9-2.7,7.5
		c-0.2,1.6-0.4,3.2-0.4,4.8c0,1.2,0.9,2.1,2,2.1l0,0c0,0,0,0,0.1,0h0.1c1.6-0.1,3.2-0.2,4.8-0.4c5.5-0.8,7-2.2,7.5-2.7
		c1.3-1.3,2.1-2.9,2.3-4.7C525.5,543,524.7,541.9,523.6,541.8z"/>
	<path class="st2" d="M197.8,571.6H193c-2,0-3.6-1.6-3.6-3.6l0,0v-21.4c0-2,1.6-3.6,3.6-3.6l0,0h4.8c2,0,3.6,1.6,3.6,3.6l0,0V568
		C201.4,570,199.8,571.6,197.8,571.6L197.8,571.6z"/>
	<path class="st2" d="M231.1,571.6h-4.8c-2,0-3.6-1.6-3.6-3.6l0,0v-35.7c0-2,1.6-3.6,3.6-3.6l0,0h4.8c2,0,3.6,1.6,3.6,3.6l0,0V568
		C234.6,570,233,571.6,231.1,571.6L231.1,571.6z"/>
	<path class="st2" d="M247.7,571.6h-4.8c-2,0-3.6-1.6-3.6-3.6l0,0v-52.3c0-2,1.6-3.6,3.6-3.6h4.8c2,0,3.6,1.6,3.6,3.6V568
		C251.3,570,249.7,571.6,247.7,571.6L247.7,571.6z"/>
	<path class="st2" d="M214.4,571.6h-4.8c-2,0-3.6-1.6-3.6-3.6l0,0v-64.2c0-2,1.6-3.6,3.6-3.6h4.8c2,0,3.6,1.6,3.6,3.6V568
		C218,570,216.4,571.6,214.4,571.6L214.4,571.6z"/>
	<path class="st2" d="M618.5,249.5l-3.4-3.4c-1.6-1.6-4.2-1.6-5.9,0l-23.6,21.8c-0.9,0.8-1.4,1.8-1.5,3c-0.1,1.2,0.4,2.3,1.2,3.1
		l5.1,5.1l0,0c0.8,0.8,1.8,1.2,3,1.2h0.2c1.2-0.1,2.2-0.6,3-1.5l21.9-23.5C620.2,253.8,620.2,251.1,618.5,249.5L618.5,249.5z"/>
	<path class="st2" d="M645.8,242.6L645.8,242.6l-4.5-4.5c-0.5-0.5-1.2-0.8-2-0.8c-0.6,0-1.2,0.2-1.7,0.5c0-0.1,0-0.1,0-0.2
		c0.2-1.1-0.1-2.3-0.7-3.3c-1-1.3-2.1-2.6-3.2-3.7l0,0c-3.3-3.1-7.1-5.6-11.3-7.3c-2.2-0.9-4.5-1.4-6.9-1.4c-3.1,0-6,1-8.4,2.9
		c-0.7,0.6-1.3,1.4-1.8,2.1c-0.7,0.9-0.5,2.2,0.5,2.9c0.6,0.4,1.3,0.5,2,0.3c0.4-0.1,0.7-0.3,1.1-0.3c0.8-0.2,1.6-0.2,2.4-0.1
		c1.7,0.2,3.3,0.8,4.6,1.7c1.6,1.3,2.4,3.3,2.4,5.3c-0.6,1.6-1.5,3.2-2.6,4.5c-0.6,0.8-0.5,2,0.2,2.7l4.5,4.5c0.8,0.8,2,0.8,2.9,0.1
		c1.3-1.1,3.2-2.8,3.9-3.3c0.6-0.4,1.2-0.6,1.9-0.8c0.5,0,1,0.1,1.5,0.3c0,0,0,0.1,0,0.1l-0.2,0.2l0,0c-1.1,1.1-1.1,2.9,0,4l0,0
		l4.5,4.4c0.5,0.5,1.2,0.8,2,0.8c0.7,0,1.5-0.3,2-0.8l7.2-7.1c0,0,0-0.1,0.1-0.1C646.9,245.4,646.9,243.7,645.8,242.6z"/>
	<path class="st2" d="M135.9,247.3c-1.4,0-2.6-1.2-2.6-2.6c0-0.7,0.3-1.4,0.8-1.8l6-6l-6-6c-1-1-1-2.7,0-3.7c1-1,2.7-1,3.7,0
		l7.8,7.8c1,1,1,2.7,0,3.7c0,0,0,0,0,0l-7.8,7.8C137.2,247,136.6,247.3,135.9,247.3z"/>
	<path class="st2" d="M94.2,255.1c-1.4,0-2.6-1.2-2.6-2.6c0,0,0,0,0,0v-2.6c0-8.6,7-15.6,15.6-15.6h33.9c1.4,0,2.6,1.2,2.6,2.6
		c0,1.4-1.2,2.6-2.6,2.6c0,0,0,0,0,0h-33.9c-5.7,0-10.4,4.7-10.4,10.4v2.6C96.8,253.9,95.6,255.1,94.2,255.1
		C94.2,255.1,94.2,255.1,94.2,255.1z"/>
	<path class="st2" d="M115,275.9c-0.7,0-1.4-0.3-1.8-0.8l-7.8-7.8c-1-1-1-2.7,0-3.7c0,0,0,0,0,0l7.8-7.8c1-1,2.7-1,3.7,0
		c1,1,1,2.7,0,3.7l-6,6l6,6c1,1,1,2.7,0,3.7C116.4,275.7,115.7,275.9,115,275.9L115,275.9z"/>
	<path class="st2" d="M109.8,268.1c-1.4,0-2.6-1.2-2.6-2.6c0-1.4,1.2-2.6,2.6-2.6h33.9c5.7,0,10.4-4.7,10.4-10.4v-2.6
		c0-1.4,1.2-2.6,2.6-2.6c1.4,0,2.6,1.2,2.6,2.6v2.6c0,8.6-7,15.6-15.6,15.6L109.8,268.1z"/>
</g>
</svg>
