<?xml version="1.0" encoding="utf-8"?>
<!-- Generator: Adobe Illustrator 24.1.0, SVG Export Plug-In . SVG Version: 6.00 Build 0)  -->
<svg version="1.1" id="b32a285a-6b04-4396-8e15-f52ff515c3cb"
	 xmlns="http://www.w3.org/2000/svg" xmlns:xlink="http://www.w3.org/1999/xlink" x="0px" y="0px" viewBox="0 0 1115.9 832.6"
	 style="enable-background:new 0 0 1115.9 832.6;" xml:space="preserve">
<style type="text/css">
	.st0{fill:none;stroke:#3F3D56;stroke-width:2;stroke-miterlimit:10;}
	.st1{fill:#2F2E41;}
	.st2{fill:#F2F2F2;}
	.st3{fill:#3F3D56;}
	.st4{fill:#FFFFFF;}
	.st5{fill:#FF4700;}
	.st6{fill:#FF6584;}
	.st7{fill:#DFF0FF;}
</style>
<line class="st0" x1="390" y1="255.3" x2="534" y2="255.3"/>
<ellipse transform="matrix(0.357 -0.9341 0.9341 0.357 -249.7908 456.6699)" class="st1" cx="206.8" cy="409.8" rx="39.5" ry="12.4"/>
<path class="st2" d="M1111.3,509.3c15.7,116.6-5.7,233.3-114.2,278.8s-233.3-5.7-278.8-114.2s61.8-173.4,114.2-278.8
	C939,181.2,1062.7,147.2,1111.3,509.3z"/>
<ellipse class="st3" cx="916" cy="794.4" rx="170" ry="23.1"/>
<rect x="807.2" y="729.4" transform="matrix(0.9639 -0.2664 0.2664 0.9639 -167.5835 247.5975)" class="st1" width="43" height="24"/>
<ellipse transform="matrix(0.9639 -0.2664 0.2664 0.9639 -169.0992 240.6419)" class="st1" cx="802.3" cy="743.5" rx="7.5" ry="20"/>
<ellipse transform="matrix(0.1343 -0.9909 0.9909 0.1343 150.8831 1481.4148)" class="st1" cx="923.3" cy="654.4" rx="39.5" ry="12.4"/>
<circle class="st1" cx="915.6" cy="728.3" r="79"/>
<rect x="807.2" y="715.4" transform="matrix(0.9639 -0.2664 0.2664 0.9639 -163.8534 247.0915)" class="st1" width="43" height="24"/>
<ellipse transform="matrix(0.9639 -0.2664 0.2664 0.9639 -165.3691 240.1358)" class="st1" cx="802.3" cy="729.5" rx="7.5" ry="20"/>
<circle class="st4" cx="936.3" cy="683" r="27"/>
<circle class="st3" cx="945" cy="671.1" r="9"/>
<path class="st5" d="M1006.8,782.6c29.2-1.5,51.6-28.8,50-61.1s-26.6-57.2-55.9-55.8s-33.8,24.4-32.2,56.7S977.6,784.1,1006.8,782.6
	z"/>
<path class="st4" d="M883.3,694.9c-9.9,0.8-18.6-6.6-19.4-16.5c-0.8-9.9,6.6-18.6,16.5-19.4s12.6,7.1,13.4,17
	S893.2,694.1,883.3,694.9z"/>
<polyline class="st0" points="49.5,361 492,361 560.6,394.4 669.9,447.7 741.3,313.9 943.6,313.9 "/>
<circle class="st5" cx="222.8" cy="375" r="13.7"/>
<circle class="st5" cx="350.5" cy="361" r="13.7"/>
<circle class="st5" cx="560.4" cy="394.5" r="13.7"/>
<circle class="st5" cx="855.4" cy="313.9" r="13.7"/>
<circle class="st5" cx="712.4" cy="367.1" r="13.7"/>
<circle class="st0" cx="427.6" cy="581.4" r="14.8"/>
<ellipse class="st3" cx="170" cy="809.4" rx="170" ry="23.1"/>
<circle class="st1" cx="160.8" cy="696.4" r="79"/>
<rect x="124.8" y="758.4" class="st1" width="24" height="43"/>
<rect x="172.8" y="758.4" class="st1" width="24" height="43"/>
<ellipse class="st1" cx="144.8" cy="801.9" rx="20" ry="7.5"/>
<ellipse class="st1" cx="192.8" cy="800.9" rx="20" ry="7.5"/>
<circle class="st4" cx="162.8" cy="676.4" r="27"/>
<circle class="st3" cx="162.8" cy="676.4" r="9"/>
<path class="st5" d="M84.2,623c-6.4-28.6,14-57.4,45.5-64.5s62.3,10.4,68.6,39s-14.5,39.1-46.1,46.1S90.6,651.5,84.2,623z"/>
<circle class="st1" cx="133.8" cy="469.4" r="79"/>
<rect x="97.8" y="531.4" class="st1" width="24" height="43"/>
<rect x="145.8" y="531.4" class="st1" width="24" height="43"/>
<ellipse class="st1" cx="117.8" cy="574.9" rx="20" ry="7.5"/>
<ellipse class="st1" cx="165.8" cy="573.9" rx="20" ry="7.5"/>
<circle class="st4" cx="135.8" cy="449.4" r="27"/>
<circle class="st3" cx="135.8" cy="449.4" r="9"/>
<path class="st5" d="M57.2,396c-6.4-28.6,14-57.4,45.5-64.5s62.3,10.4,68.6,39s-14.5,39.1-46.1,46.1S63.6,424.5,57.2,396z"/>
<ellipse transform="matrix(0.4285 -0.9035 0.9035 0.4285 -365.4131 287.821)" class="st1" cx="44.8" cy="432.8" rx="12.4" ry="39.5"/>
<path class="st4" d="M95,497.9c0,7.7,19.9,23,42,23s42.8-21.8,42.8-29.5s-20.7,1.5-42.8,1.5S95,490.2,95,497.9z"/>
<rect x="835.5" y="564.7" class="st5" width="126.1" height="64.2"/>
<rect x="825.6" y="575.1" class="st0" width="126.1" height="64.2"/>
<rect x="226.6" y="199" class="st6" width="36" height="36"/>
<rect x="217.6" y="187" class="st0" width="36" height="36"/>
<circle class="st1" cx="906.1" cy="189.5" r="79"/>
<rect x="932.5" y="245.9" transform="matrix(0.984 -0.1781 0.1781 0.984 -32.5178 172.5262)" class="st1" width="24" height="43"/>
<rect x="885.3" y="254.4" transform="matrix(0.984 -0.1781 0.1781 0.984 -34.7975 164.2538)" class="st1" width="24" height="43"/>
<ellipse transform="matrix(0.7631 -0.6463 0.6463 0.7631 17.075 651.3519)" class="st1" cx="897" cy="302.4" rx="20" ry="7.5"/>
<ellipse transform="matrix(0.7631 -0.6463 0.6463 0.7631 33.4416 679.2575)" class="st1" cx="943.3" cy="294" rx="20" ry="7.5"/>
<circle class="st4" cx="900.5" cy="170.1" r="27"/>
<circle class="st3" cx="889.4" cy="160.5" r="9"/>
<path class="st5" d="M968.4,103.5c1.2-29.2-24-54-56.3-55.3s-59.4,21.3-60.6,50.6s21.3,35.9,53.5,37.2S967.2,132.8,968.4,103.5z"/>
<ellipse transform="matrix(0.2234 -0.9747 0.9747 0.2234 476.3202 948.0085)" class="st1" cx="833.1" cy="175.1" rx="12.4" ry="39.5"/>
<ellipse transform="matrix(0.2234 -0.9747 0.9747 0.2234 571.6106 1119.1895)" class="st1" cx="988.2" cy="200.9" rx="12.4" ry="39.5"/>
<path class="st4" d="M927.7,220.6c1.8,9.8-4.7,19.1-14.5,20.9c-9.8,1.8-19.1-4.7-20.9-14.5s5.8-13.2,15.6-15S926,210.8,927.7,220.6z
	"/>
<line class="st0" x1="712.6" y1="99" x2="803.6" y2="169"/>
<circle class="st7" cx="669.6" cy="68" r="68"/>
<ellipse transform="matrix(0.1343 -0.9909 0.9909 0.1343 106.6127 1468.2819)" class="st1" cx="893.7" cy="673.1" rx="39.5" ry="12.4"/>
<circle class="st5" cx="68.8" cy="786" r="13.7"/>
<rect x="256.6" y="770" class="st6" width="36" height="36"/>
<circle class="st5" cx="256.8" cy="794" r="13.7"/>
<circle class="st5" cx="462" cy="255" r="13.7"/>
<circle class="st6" cx="727.7" cy="679.3" r="6.5"/>
<line class="st0" x1="759.7" y1="787.7" x2="759.7" y2="713.3"/>
<circle class="st3" cx="759.7" cy="713.3" r="10.5"/>
<path class="st3" d="M759.7,759.2c0,0-1.5-32.3-32.3-28.6"/>
</svg>
